<?xml version="1.0" standalone="no"?>
<!DOCTYPE svg PUBLIC "-//W3C//DTD SVG 20010904//EN"
 "http://www.w3.org/TR/2001/REC-SVG-20010904/DTD/svg10.dtd">
<svg version="1.0" xmlns="http://www.w3.org/2000/svg"
 width="1024.000000pt" height="1024.000000pt" viewBox="0 0 1024.000000 1024.000000"
 preserveAspectRatio="xMidYMid meet">

<g transform="translate(0.000000,1024.000000) scale(0.100000,-0.100000)"
fill="#D3D3FF" stroke="none">
<path d="M5850 8209 c-18 -24 -151 -282 -296 -574 -145 -291 -295 -591 -334
-665 -71 -138 -79 -163 -58 -176 7 -4 111 -11 232 -15 194 -7 223 -10 245 -27
59 -44 63 -32 -178 -609 -122 -292 -221 -543 -221 -558 0 -16 11 -38 29 -56
40 -40 93 -40 147 -1 39 29 510 507 1074 1092 162 168 345 357 406 420 62 63
115 125 118 137 8 26 -16 78 -39 87 -9 3 -177 6 -374 6 -372 0 -391 2 -370 41
9 18 560 747 606 803 30 35 27 63 -10 90 -26 19 -46 21 -345 27 -174 4 -381
10 -458 15 l-142 7 -32 -44z"/>
<path d="M4930 8094 c-387 -55 -694 -176 -972 -385 -116 -86 -330 -306 -410
-419 -203 -287 -272 -517 -286 -952 l-8 -223 -35 -80 c-19 -44 -97 -181 -173
-305 -275 -448 -287 -477 -234 -557 47 -72 87 -87 281 -108 31 -4 63 -12 70
-20 8 -8 18 -63 26 -141 43 -459 84 -827 97 -878 33 -126 91 -196 212 -254
l77 -37 145 0 c80 0 214 7 299 14 l154 15 46 -26 c64 -35 87 -85 105 -223 65
-488 65 -516 7 -707 -47 -155 -50 -187 -20 -214 21 -18 52 -19 1124 -17 1202
2 1153 -1 1191 58 15 24 16 35 6 98 -6 40 -41 167 -77 282 -271 861 -258 1275
51 1731 37 54 109 161 160 236 108 160 226 390 312 608 114 292 151 452 159
685 6 190 -5 275 -57 447 -44 143 -86 230 -108 226 -10 -2 -311 -302 -669
-668 -792 -810 -883 -899 -948 -930 -101 -48 -221 -34 -303 35 -57 49 -82 106
-82 187 0 79 -1 77 217 601 90 218 163 405 161 415 -3 15 -22 18 -173 22 -152
4 -175 7 -218 28 -26 13 -61 40 -77 60 -57 69 -57 67 204 590 129 257 266 528
305 602 39 73 71 144 71 157 0 13 -11 29 -26 40 -37 24 -451 29 -604 7z
m-1187 -2148 c147 -74 280 -82 435 -25 31 11 72 23 90 26 32 5 33 4 30 -23 -4
-35 -73 -87 -155 -116 -118 -41 -288 -32 -394 23 -59 29 -129 97 -129 124 0
47 13 46 123 -9z"/>
</g>
</svg>
